<?xml version="1.0" encoding="UTF-8" standalone="no"?>
<!-- Created with Inkscape (http://www.inkscape.org/) -->

<svg
   width="126.32917mm"
   height="127.8422mm"
   viewBox="0 0 126.32917 127.8422"
   version="1.1"
   id="svg1"
   inkscape:version="1.3 (0e150ed6c4, 2023-07-21)"
   sodipodi:docname="HCGoWhere_Logo.svg"
   xml:space="preserve"
   inkscape:export-filename="HCGoWhere_Logo.png"
   inkscape:export-xdpi="96"
   inkscape:export-ydpi="96"
   xmlns:inkscape="http://www.inkscape.org/namespaces/inkscape"
   xmlns:sodipodi="http://sodipodi.sourceforge.net/DTD/sodipodi-0.dtd"
   xmlns:xlink="http://www.w3.org/1999/xlink"
   xmlns="http://www.w3.org/2000/svg"
   xmlns:svg="http://www.w3.org/2000/svg"><sodipodi:namedview
     id="namedview1"
     pagecolor="#505050"
     bordercolor="#bcbcbc"
     borderopacity="1"
     inkscape:showpageshadow="0"
     inkscape:pageopacity="0"
     inkscape:pagecheckerboard="1"
     inkscape:deskcolor="#707070"
     inkscape:document-units="mm"
     inkscape:zoom="1"
     inkscape:cx="131"
     inkscape:cy="283"
     inkscape:window-width="1920"
     inkscape:window-height="1009"
     inkscape:window-x="-8"
     inkscape:window-y="-8"
     inkscape:window-maximized="1"
     inkscape:current-layer="g1"><inkscape:page
       x="0"
       y="0"
       width="126.32917"
       height="127.84219"
       id="page1"
       margin="0"
       bleed="0" /></sodipodi:namedview><defs
     id="defs1"><linearGradient
       id="linearGradient13"
       inkscape:collect="always"><stop
         style="stop-color:#f75767;stop-opacity:1;"
         offset="0"
         id="stop12" /><stop
         style="stop-color:#ff2b5d;stop-opacity:1;"
         offset="1"
         id="stop13" /></linearGradient><linearGradient
       id="linearGradient4"
       inkscape:collect="always"><stop
         style="stop-color:#5a5a5a;stop-opacity:1;"
         offset="0"
         id="stop5" /><stop
         style="stop-color:#808080;stop-opacity:1;"
         offset="1"
         id="stop4" /></linearGradient><linearGradient
       id="linearGradient2"
       inkscape:collect="always"><stop
         style="stop-color:#57b7f7;stop-opacity:1;"
         offset="0"
         id="stop2" /><stop
         style="stop-color:#2baaff;stop-opacity:1;"
         offset="1"
         id="stop3" /></linearGradient><inkscape:path-effect
       effect="perspective-envelope"
       up_left_point="321.15153,811.65367"
       up_right_point="1841.1537,811.10385"
       down_left_point="62.401024,961.22206"
       down_right_point="2206.1784,961.22206"
       id="path-effect2"
       is_visible="true"
       lpeversion="1"
       deform_type="perspective"
       horizontal_mirror="false"
       vertical_mirror="false"
       overflow_perspective="false" /><linearGradient
       inkscape:collect="always"
       xlink:href="#linearGradient2"
       id="linearGradient3"
       x1="-430.32535"
       y1="301.43628"
       x2="-428.83676"
       y2="701.86273"
       gradientUnits="userSpaceOnUse"
       gradientTransform="translate(-10.261784,-19.147405)" /><linearGradient
       inkscape:collect="always"
       xlink:href="#linearGradient4"
       id="linearGradient5"
       x1="1139.3905"
       y1="828.19751"
       x2="1139.3905"
       y2="952.46887"
       gradientUnits="userSpaceOnUse" /><linearGradient
       inkscape:collect="always"
       xlink:href="#linearGradient13"
       id="linearGradient12"
       x1="-442.17227"
       y1="374.1604"
       x2="-440.75806"
       y2="468.91272"
       gradientUnits="userSpaceOnUse"
       gradientTransform="translate(3.8275268,-5.0004157)" /><filter
       inkscape:collect="always"
       style="color-interpolation-filters:sRGB"
       id="filter16"
       x="-0.39119264"
       y="-0.27152289"
       width="1.7823853"
       height="1.5430458"><feGaussianBlur
         inkscape:collect="always"
         stdDeviation="45.253815"
         id="feGaussianBlur16" /></filter></defs><g
     inkscape:label="Layer 1"
     inkscape:groupmode="layer"
     id="layer1"
     transform="translate(-59.795927,-71.432524)" /><g
     id="g1"
     inkscape:groupmode="layer"
     inkscape:label="1"
     transform="matrix(0.26458333,0,0,0.26458334,160.20408,-71.432524)"><g
       id="g16"
       transform="translate(70.710679,-4.2426356)"><g
         id="g248"
         transform="matrix(0.22272117,0,0,0.5948439,-690.10447,151.85904)"
         inkscape:path-effect="#path-effect2"><path
           fill-rule="nonzero"
           fill="#1b1a19"
           fill-opacity="1"
           d="m 1841.1537,811.10385 365.0247,150.11821 -2143.777376,0 258.750506,-149.56839 1520.00217,-0.54982"
           id="path238"
           inkscape:original-d="M 2206.1784,580.56191 V 961.22206 H 62.401024 V 580.56191 H 2206.1784"
           style="fill:url(#linearGradient5);fill-opacity:1" /><path
           fill-rule="nonzero"
           fill="#f9a20d"
           fill-opacity="1"
           d="m 1853.0043,815.97749 9.9092,4.07518 -1557.20841,0.52968 7.03378,-4.06582 1540.26543,-0.53904"
           id="path239"
           inkscape:original-d="m 2206.1784,597.77284 v 14.04688 H 62.401024 V 597.77284 H 2206.1784"
           style="fill:#d9d9d9;fill-opacity:1" /><path
           fill-rule="nonzero"
           fill="#f9a20d"
           fill-opacity="1"
           d="m 2166.7401,945.00286 18.1025,7.44473 -2107.338919,0.0445 12.815978,-7.40816 2076.420441,-0.0811"
           id="path240"
           inkscape:original-d="M 2206.1784,931.13222 V 945.183 H 62.401024 V 931.13222 H 2206.1784"
           style="fill:#d9d9d9;fill-opacity:1" /><path
           fill-rule="nonzero"
           fill="#ffffff"
           fill-opacity="1"
           d="m 357.97464,876.1783 -148.50235,0.0305 8.50212,-4.91457 146.80799,-0.0319 -6.80776,4.91597"
           id="path241"
           inkscape:original-d="M 241.04946,777.33144 H 62.401024 V 764.45253 H 241.04946 v 12.87891" /><path
           fill-rule="nonzero"
           fill="#ffffff"
           fill-opacity="1"
           d="m 596.54982,876.35718 -148.75258,0.0305 5.79057,-4.92643 147.051,-0.0319 -4.08899,4.92783"
           id="path242"
           inkscape:original-d="M 528.01431,777.92128 H 349.36587 v -12.89062 h 178.64844 v 12.89062" /><path
           fill-rule="nonzero"
           fill="#ffffff"
           fill-opacity="1"
           d="m 835.65174,876.53342 -149.00249,0.0305 3.0575,-4.93085 147.29625,-0.0319 -1.35126,4.93226"
           id="path243"
           inkscape:original-d="M 814.97524,778.50331 H 636.32681 V 765.6205 h 178.64843 v 12.88281" /><path
           fill-rule="nonzero"
           fill="#ffffff"
           fill-opacity="1"
           d="m 1075.2854,876.71309 -149.25753,0.0305 0.31612,-4.94129 147.54441,-0.0319 1.397,4.9427"
           id="path244"
           inkscape:original-d="M 1101.9401,779.09316 H 923.28774 v -12.89063 h 178.65236 v 12.89063" /><path
           fill-rule="nonzero"
           fill="#ffffff"
           fill-opacity="1"
           d="m 1315.4413,876.8886 -149.5051,0.0304 -2.437,-4.94423 147.7879,-0.0318 4.1542,4.94564"
           id="path245"
           inkscape:original-d="m 1388.8971,779.67128 h -178.6484 v -12.8789 h 178.6484 v 12.8789" /><path
           fill-rule="nonzero"
           fill="#ffffff"
           fill-opacity="1"
           d="m 1556.1363,877.06906 -149.7584,0.0304 -5.202,-4.95174 148.0354,-0.0318 6.925,4.95316"
           id="path246"
           inkscape:original-d="m 1675.8581,780.26113 h -178.6485 v -12.87891 h 178.6485 v 12.87891" /><path
           fill-rule="nonzero"
           fill="#ffffff"
           fill-opacity="1"
           d="m 1797.3675,877.24992 -150.0057,0.0303 -7.9865,-4.96373 148.2754,-0.0318 9.7168,4.96516"
           id="path247"
           inkscape:original-d="m 1962.819,780.85097 h -178.6406 v -12.89063 h 178.6406 v 12.89063" /><path
           fill-rule="nonzero"
           fill="#ffffff"
           fill-opacity="1"
           d="m 1990.3613,872.46622 12.0833,4.96931 -113.5749,0.0229 -10.772,-4.96824 112.2636,-0.024"
           id="path248"
           inkscape:original-d="M 2206.1784,768.55019 V 781.433 h -135.0391 v -12.88281 h 135.0391" /></g><g
         id="g15"
         transform="matrix(0.88279379,0,0,0.78283987,-48.322751,140.2552)"
         style="mix-blend-mode:normal;fill:#3bb1ff;fill-opacity:1;filter:url(#filter16)"><g
           id="g14"
           style="fill:#3bb1ff;fill-opacity:1"><path
             id="path13"
             d="m -440.81866,286.76154 c -76.66573,0 -138.81733,62.14933 -138.81733,138.81733 0,13.17466 1.87552,25.904 5.30469,37.98 2.11146,7.43466 4.42083,14.81866 8.06611,21.49466 28.46613,52.116 125.4452,201.708 125.4452,201.708 0,0 96.98533,-149.59467 125.44933,-201.712 3.64666,-6.67333 5.95333,-14.05733 8.06533,-21.49066 3.42667,-12.076 5.30533,-24.80534 5.30533,-37.98 0,-76.668 -62.15199,-138.81733 -138.81866,-138.81733 z m 0,199.93999 c -19.36,0 -36.63346,-9.056 -47.84186,-23.14266 -8.30414,-10.43867 -13.28534,-23.636 -13.28534,-37.98 0,-33.70534 27.42134,-61.12533 61.1272,-61.12533 33.70667,0 61.124,27.41999 61.124,61.12533 0,14.344 -4.97867,27.54133 -13.28267,37.98 -11.20933,14.08666 -28.48133,23.14266 -47.84133,23.14266"
             style="fill:#3bb1ff;fill-opacity:1;fill-rule:nonzero;stroke:none;stroke-width:0.133333"
             transform="translate(1.0485354e-6,-7.0208151)" /><circle
             style="fill:#3bb1ff;fill-opacity:1;fill-rule:evenodd;stroke:none;stroke-width:3.77953;stroke-linecap:square;stroke-miterlimit:15"
             id="circle13"
             cx="-440.81799"
             cy="420.45367"
             r="85.593018" /><path
             id="path14"
             style="fill:#3bb1ff;fill-opacity:1;fill-rule:evenodd;stroke:none;stroke-width:2.16018;stroke-linecap:square;stroke-miterlimit:15"
             d="m -459.31701,368.56598 v 33.38867 h -33.38868 v 36.99804 h 33.38868 v 33.38867 h 36.99804 v -33.38867 h 33.38868 v -36.99804 h -33.38868 v -33.38867 z" /></g></g><g
         id="g12"
         transform="translate(3.3438557,7.0208151)"><g
           id="g13"><path
             id="path1"
             d="m -440.11155,279.74072 c -76.66573,0 -138.81733,62.14933 -138.81733,138.81733 0,13.17466 1.87552,25.904 5.30469,37.98 2.11146,7.43466 4.42083,14.81866 8.06611,21.49466 28.46613,52.116 125.4452,201.708 125.4452,201.708 0,0 96.98533,-149.59467 125.44933,-201.712 3.64666,-6.67333 5.95333,-14.05733 8.06533,-21.49066 3.42667,-12.076 5.30533,-24.80534 5.30533,-37.98 0,-76.668 -62.15199,-138.81733 -138.81866,-138.81733 z m 0,199.93999 c -19.36,0 -36.63346,-9.056 -47.84186,-23.14266 -8.30414,-10.43867 -13.28534,-23.636 -13.28534,-37.98 0,-33.70534 27.42134,-61.12533 61.1272,-61.12533 33.70667,0 61.124,27.41999 61.124,61.12533 0,14.344 -4.97867,27.54133 -13.28267,37.98 -11.20933,14.08666 -28.48133,23.14266 -47.84133,23.14266"
             style="fill:url(#linearGradient3);fill-opacity:1;fill-rule:nonzero;stroke:none;stroke-width:0.133333" /><circle
             style="fill:#f5f5f5;fill-opacity:1;fill-rule:evenodd;stroke:none;stroke-width:3.77953;stroke-linecap:square;stroke-miterlimit:15"
             id="path7"
             cx="-440.81799"
             cy="420.45367"
             r="85.593018" /><path
             id="rect3"
             style="fill:url(#linearGradient12);fill-opacity:1;fill-rule:evenodd;stroke:none;stroke-width:2.16018;stroke-linecap:square;stroke-miterlimit:15"
             d="m -459.31701,368.56598 v 33.38867 h -33.38868 v 36.99804 h 33.38868 v 33.38867 h 36.99804 v -33.38867 h 33.38868 v -36.99804 h -33.38868 v -33.38867 z" /></g></g></g></g></svg>
